<svg xmlns="http://www.w3.org/2000/svg" xmlns:xlink="http://www.w3.org/1999/xlink" width="500" zoomAndPan="magnify" viewBox="0 0 375 374.999991" height="500" preserveAspectRatio="xMidYMid meet" version="1.0"><defs><clipPath id="a9b97ab54d"><path d="M 1 12.273438 L 375 12.273438 L 375 362.523438 L 1 362.523438 Z M 1 12.273438 " clip-rule="nonzero"/></clipPath></defs><g clip-path="url(#a9b97ab54d)"><path fill="#1d1d1f" d="M 241.007812 12.378906 C 242.746094 12.734375 242.921875 13.015625 244.753906 17.664062 C 245.8125 20.34375 247.058594 24.144531 247.46875 26.070312 C 248.007812 28.695312 248.09375 30.742188 247.703125 34.203125 C 247.390625 36.988281 246.605469 40.246094 245.789062 42.351562 C 245.054688 44.253906 243.46875 47.632812 242.234375 49.792969 C 241.046875 51.960938 238.902344 55.222656 237.488281 57.101562 C 236.078125 58.929688 233.800781 61.496094 229.988281 65.144531 L 231.164062 66.324219 C 231.773438 66.964844 232.441406 68.453125 232.625 69.625 C 232.808594 70.796875 232.050781 80.277344 229.0625 110.523438 L 242.363281 111.8125 C 249.652344 112.582031 255.660156 113.097656 255.71875 113.050781 C 255.824219 113.066406 256.816406 107.476562 258.050781 100.714844 C 259.238281 93.949219 261.105469 83.804688 262.15625 78.175781 C 263.261719 72.546875 264.320312 67.335938 264.515625 66.519531 C 264.753906 65.761719 265.492188 64.851562 267.425781 63.917969 L 266.292969 60.5 C 265.671875 58.597656 265.058594 55.65625 264.992188 53.921875 C 264.816406 51.707031 265.027344 49.847656 265.691406 47.726562 C 266.21875 45.851562 268.738281 41.117188 272.390625 35.148438 C 275.59375 29.914062 278.726562 24.414062 279.46875 22.925781 C 280.242188 21.183594 281.148438 20.085938 281.914062 19.804688 C 282.835938 19.488281 283.457031 19.558594 284.238281 20.066406 C 285.121094 20.585938 285.796875 22.488281 287.0625 27.964844 C 287.972656 31.933594 288.925781 36.484375 289.164062 38.082031 C 289.410156 39.675781 289.414062 42.867188 289.160156 45.136719 C 288.902344 47.410156 288.179688 50.621094 287.519531 52.273438 C 286.859375 53.925781 285.515625 56.597656 284.496094 58.207031 C 283.476562 59.816406 281.597656 62.113281 277.964844 65.574219 L 278.886719 67.613281 C 279.808594 69.652344 279.820312 70.019531 278.179688 83.636719 C 277.320312 91.277344 275.804688 101.507812 273.175781 115.066406 L 285.25 117 C 291.871094 118.113281 300.894531 119.753906 305.238281 120.660156 C 309.582031 121.570312 316.566406 123.191406 320.785156 124.292969 C 324.957031 125.335938 331.59375 127.234375 335.480469 128.507812 C 339.363281 129.78125 344.589844 131.675781 347.039062 132.683594 C 349.488281 133.691406 353.074219 135.296875 355.003906 136.296875 C 356.9375 137.246094 360.417969 139.3125 362.847656 140.941406 C 365.234375 142.519531 368.34375 145.117188 369.679688 146.730469 C 371.070312 148.296875 372.679688 150.726562 373.308594 152.105469 C 374.226562 154.195312 374.328125 155.148438 373.882812 158.179688 C 373.660156 160.144531 373.261719 162.714844 373.035156 163.835938 C 372.828125 164.964844 372.691406 170.125 372.738281 175.304688 C 372.777344 180.484375 372.714844 189.417969 372.644531 195.160156 C 372.574219 200.902344 372.4375 209.097656 372.316406 213.421875 C 372.199219 217.695312 371.761719 224.390625 371.332031 228.210938 C 370.722656 233.632812 370.257812 235.878906 369.1875 238.425781 C 367.84375 241.515625 367.761719 242.238281 367.199219 252.839844 C 366.828125 258.96875 366.382812 269.84375 366.097656 277.027344 C 365.871094 284.164062 365.414062 294.253906 365.148438 299.398438 C 364.832031 304.539062 364.15625 312.828125 363.597656 317.785156 C 362.960938 322.730469 362.1875 328.449219 361.707031 330.378906 C 361.164062 332.882812 360.464844 334.421875 359.457031 335.511719 C 358.550781 336.558594 356.605469 337.597656 353.941406 338.5 C 351.707031 339.292969 345.585938 341.167969 340.386719 342.726562 C 335.191406 344.285156 325.679688 346.976562 319.3125 348.71875 C 312.945312 350.460938 304.433594 352.640625 300.453125 353.601562 C 296.472656 354.566406 290.042969 355.933594 286.246094 356.65625 C 282.402344 357.375 275.476562 358.480469 270.804688 359.101562 C 266.128906 359.726562 258.234375 360.617188 253.328125 361.003906 C 248.359375 361.441406 240.300781 361.945312 235.414062 362.128906 C 230.476562 362.304688 223.554688 362.46875 219.945312 362.480469 C 216.332031 362.492188 209.382812 362.441406 204.53125 362.3125 C 199.628906 362.179688 190.417969 361.769531 183.96875 361.414062 C 176.542969 360.945312 162.636719 359.484375 145.710938 357.421875 C 128.941406 355.375 115.09375 353.402344 108.125 352.09375 C 102.082031 350.945312 92.621094 349.042969 87.15625 347.855469 C 81.691406 346.664062 74.003906 344.804688 70.089844 343.789062 C 66.175781 342.777344 59.332031 340.855469 54.882812 339.464844 C 50.4375 338.078125 43.632812 335.796875 39.765625 334.367188 C 35.90625 332.886719 27.71875 329.40625 21.546875 326.621094 C 13.6875 323.015625 9.980469 321.082031 9.054688 320.039062 C 8.363281 319.175781 7.625 317.367188 7.34375 315.714844 C 7.085938 314.222656 6.867188 306.933594 6.804688 299.605469 C 6.789062 292.285156 6.886719 279.800781 7.042969 271.925781 C 7.199219 264.046875 7.367188 254.1875 7.367188 250.003906 C 7.367188 245.820312 7.628906 241.617188 7.898438 240.652344 C 8.269531 239.230469 8.0625 238.265625 6.925781 235.839844 C 6.167969 234.183594 5.078125 231.34375 4.496094 229.554688 C 3.964844 227.765625 3.136719 224.433594 2.714844 222.136719 C 2.238281 219.886719 1.664062 215.222656 1.421875 211.796875 C 0.980469 206.414062 1.109375 203.867188 2.453125 191.941406 C 3.664062 181.203125 4.335938 177.097656 5.535156 172.945312 C 6.335938 170.003906 7.984375 165.117188 9.160156 162.113281 C 10.339844 159.058594 12.160156 154.976562 13.167969 152.996094 C 14.234375 150.972656 15.796875 148.691406 16.722656 147.90625 C 17.71875 146.972656 18.375 145.792969 18.53125 144.871094 C 18.628906 143.992188 19.582031 142.007812 20.699219 140.460938 C 21.820312 138.863281 24.019531 136.546875 25.628906 135.265625 C 27.234375 133.980469 30.398438 131.933594 32.675781 130.726562 C 34.964844 129.464844 39.375 127.453125 42.546875 126.242188 C 45.722656 124.976562 51.585938 123.074219 55.582031 121.957031 C 59.578125 120.839844 66.25 119.183594 70.378906 118.289062 C 74.503906 117.445312 80.761719 116.214844 84.273438 115.667969 C 87.796875 115.074219 94.597656 114.113281 99.425781 113.503906 C 104.261719 112.847656 108.714844 112.300781 110.570312 112.09375 L 112.773438 89.703125 C 113.945312 77.445312 115.320312 65.730469 115.773438 63.796875 C 116.398438 61.042969 116.882812 60 119.097656 58.421875 L 118.328125 55.980469 C 117.914062 54.523438 117.632812 51.929688 117.785156 49.644531 C 117.898438 47.253906 118.445312 44.492188 119.113281 42.476562 C 119.679688 40.65625 122.039062 35.066406 124.285156 29.988281 C 126.53125 24.90625 128.761719 20.402344 129.285156 19.9375 C 129.808594 19.472656 130.839844 19.171875 131.605469 19.308594 C 132.691406 19.433594 133.546875 20.207031 134.898438 22.136719 C 135.929688 23.664062 137.40625 26.339844 138.195312 28.15625 C 139.035156 29.976562 139.972656 32.796875 140.316406 34.40625 C 140.710938 36.019531 140.976562 38.765625 140.941406 40.488281 C 140.917969 42.523438 140.457031 44.773438 139.6875 46.988281 C 139 48.894531 137.707031 51.574219 136.820312 52.9375 C 135.929688 54.351562 134.101562 56.65625 132.851562 57.980469 C 130.820312 60.210938 130.632812 60.5 131.5625 60.605469 C 132.132812 60.671875 132.992188 61.394531 133.472656 62.230469 C 134.164062 63.511719 134.21875 64.878906 133.902344 70.019531 C 133.625 73.4375 132.949219 81.726562 132.351562 88.402344 C 131.753906 95.082031 130.992188 102.785156 130.140625 110.375 L 140.289062 109.894531 C 145.816406 109.574219 153.175781 109.253906 156.539062 109.109375 C 162.378906 108.824219 162.699219 108.753906 163.097656 107.546875 C 163.285156 106.835938 164.472656 97.664062 165.707031 87.1875 C 166.972656 76.664062 168.3125 66.359375 168.808594 64.273438 C 169.433594 61.519531 169.988281 60.277344 170.726562 59.785156 C 171.742188 59.113281 171.75 59.0625 170.808594 57.179688 C 170.246094 56.121094 169.660156 54.382812 169.511719 53.375 C 169.308594 52.359375 169.359375 50.113281 169.550781 48.410156 C 169.765625 46.5 170.515625 44.023438 171.546875 41.839844 C 172.445312 39.902344 174.382812 36.144531 175.890625 33.441406 C 177.398438 30.734375 179.007812 27.621094 179.390625 26.515625 C 179.832031 25.414062 180.488281 24.234375 180.835938 23.90625 C 181.238281 23.582031 182.308594 23.394531 183.179688 23.542969 C 184.625 23.707031 185.148438 24.183594 186.542969 26.640625 C 187.511719 28.265625 188.828125 30.976562 189.53125 32.621094 C 190.234375 34.269531 191.019531 37.078125 191.34375 38.839844 C 191.667969 41.070312 191.636719 43.210938 191.175781 45.878906 C 190.710938 48.648438 189.960938 50.601562 188.605469 52.90625 C 187.570312 54.671875 185.84375 56.988281 184.832031 58.078125 C 183 59.960938 182.921875 60.164062 183.675781 60.925781 C 184.140625 61.398438 184.785156 63.140625 185.066406 64.847656 C 185.386719 66.609375 185.660156 70.246094 185.667969 72.964844 C 185.722656 75.691406 184.953125 84.855469 182.367188 108.773438 L 185.75 108.890625 C 187.628906 108.945312 193.625 109.097656 199.050781 109.238281 C 204.476562 109.375 209.28125 109.445312 209.609375 109.328125 C 210.089844 109.222656 210.449219 107.90625 210.757812 105.167969 C 211.003906 103 212.203125 95.554688 213.410156 88.632812 C 214.613281 81.710938 216.128906 73.777344 216.757812 70.972656 C 217.390625 68.167969 218.21875 65.441406 218.589844 64.90625 C 218.914062 64.367188 219.441406 63.851562 219.71875 63.726562 C 219.992188 63.597656 219.773438 62.269531 219.261719 60.800781 C 218.699219 59.273438 218.042969 56.742188 217.804688 55.144531 C 217.511719 53.546875 217.277344 51.007812 217.277344 49.597656 C 217.234375 48.128906 217.609375 45.714844 218.039062 44.195312 C 218.527344 42.679688 219.539062 40.179688 220.28125 38.695312 C 221.027344 37.210938 224.457031 32.265625 227.890625 27.789062 C 231.332031 23.261719 234.988281 18.183594 236.023438 16.417969 C 237.113281 14.65625 238.246094 12.957031 238.597656 12.628906 C 238.949219 12.300781 239.957031 12.15625 241.03125 12.378906 Z M 233.875 29.25 C 231.121094 32.808594 227.765625 37.5 226.425781 39.652344 C 225.085938 41.800781 223.664062 44.671875 223.347656 46.101562 C 223.039062 47.476562 222.820312 50.066406 223.019531 51.816406 C 223.1875 53.558594 223.761719 56.394531 224.347656 58.132812 C 224.886719 59.867188 225.457031 61.289062 225.613281 61.308594 C 225.765625 61.324219 227.175781 59.96875 228.820312 58.375 C 230.417969 56.722656 233.09375 53.417969 234.71875 51.039062 C 236.355469 48.609375 238.4375 44.976562 239.347656 42.933594 C 240.308594 40.898438 241.386719 37.832031 241.785156 36.148438 C 242.207031 34.261719 242.375 31.878906 242.226562 29.925781 C 242.058594 28.183594 241.527344 25.457031 241.023438 23.882812 C 240.511719 22.363281 239.980469 21.046875 239.878906 21.035156 C 239.726562 21.019531 239.472656 21.410156 239.265625 21.855469 C 239.054688 22.355469 236.636719 25.691406 233.882812 29.25 Z M 271.933594 47.121094 C 271.367188 48.363281 270.78125 50.339844 270.648438 51.527344 C 270.507812 52.765625 270.792969 55.359375 271.300781 57.351562 C 271.800781 59.394531 272.371094 61.285156 272.652344 61.582031 C 272.957031 61.960938 273.511719 61.851562 274.3125 61.242188 C 274.996094 60.746094 276.652344 59.050781 277.929688 57.46875 C 279.207031 55.886719 280.925781 53.152344 281.703125 51.359375 C 282.484375 49.5625 283.335938 46.625 283.542969 44.769531 C 283.84375 42.816406 283.695312 39.660156 283.355469 37.167969 C 282.992188 34.824219 282.417969 32.460938 282.109375 31.957031 C 281.691406 31.070312 281.019531 31.878906 277.304688 37.949219 C 274.9375 41.761719 272.539062 45.882812 271.929688 47.121094 Z M 175.488281 46.992188 C 174.988281 48.605469 174.761719 50.203125 174.914062 51.371094 C 175.0625 52.378906 175.605469 54.0625 176.167969 55.117188 C 176.730469 56.175781 177.351562 57.132812 177.65625 57.21875 C 177.957031 57.359375 179.3125 55.992188 180.714844 54.21875 C 182.117188 52.441406 183.75 50.011719 184.363281 48.773438 C 184.925781 47.527344 185.558594 45.144531 185.75 43.441406 C 186.03125 40.960938 185.828125 39.527344 184.714844 36.371094 C 183.960938 34.246094 183.222656 32.4375 183.121094 32.425781 C 183.011719 32.414062 181.40625 35.109375 179.621094 38.410156 C 177.832031 41.765625 175.9375 45.578125 175.464844 46.988281 Z M 128.917969 33.648438 C 127.738281 36.234375 126.101562 40.074219 125.242188 42.121094 C 124.4375 44.175781 123.617188 47.273438 123.425781 48.976562 C 123.183594 51.144531 123.402344 52.945312 124.046875 55.058594 L 125.019531 58.042969 C 128.113281 54.730469 129.734375 52.875 130.597656 51.714844 C 131.507812 50.617188 132.863281 48.3125 133.6875 46.574219 C 134.851562 44.144531 135.164062 42.769531 135.203125 40.105469 C 135.234375 37.964844 134.832031 35.515625 134.121094 33.449219 C 133.488281 31.652344 132.714844 29.683594 132.367188 29.070312 C 132.011719 28.457031 131.574219 28.195312 131.390625 28.4375 C 131.210938 28.675781 130.101562 31.0625 128.921875 33.648438 Z M 266.625 84.949219 C 265.566406 90.582031 263.269531 103.601562 261.585938 113.921875 C 259.847656 124.234375 257.746094 136.859375 256.953125 142.050781 L 255.476562 151.398438 C 260.484375 151.960938 261.4375 151.859375 261.492188 151.394531 C 261.527344 151.085938 262.5 144.765625 263.640625 137.417969 C 264.785156 130.070312 265.914062 123.714844 266.222656 123.328125 C 266.527344 122.945312 267.359375 118.335938 268.105469 113.085938 C 268.851562 107.835938 270.039062 100.546875 270.765625 96.917969 C 271.441406 93.230469 272.515625 85.980469 273.109375 80.710938 L 274.183594 71.160156 C 271.671875 70.25 270.65625 69.980469 270.296875 69.941406 C 269.980469 69.902344 269.449219 70.945312 269.144531 72.269531 C 268.78125 73.636719 267.667969 79.316406 266.617188 84.949219 Z M 217.566406 96.945312 C 216.398438 103.558594 214.65625 113.976562 213.765625 120.042969 C 212.871094 126.113281 211.402344 135.878906 210.480469 141.789062 L 208.808594 152.421875 L 216.042969 153.234375 C 217.082031 149.117188 218.09375 143.847656 218.960938 138.925781 C 219.832031 134.003906 221.132812 126.621094 221.855469 122.523438 C 222.527344 118.414062 223.898438 107.171875 224.882812 97.507812 C 225.863281 87.839844 226.777344 77.855469 226.914062 75.253906 C 227.132812 70.992188 227.035156 70.511719 226.035156 70.085938 C 225.4375 69.808594 224.425781 69.484375 223.859375 69.421875 C 222.824219 69.304688 222.679688 69.65625 221.269531 77.078125 C 220.421875 81.371094 218.785156 90.335938 217.570312 96.945312 Z M 174.066406 66.59375 C 173.808594 67.503906 171.488281 85.28125 168.925781 106.164062 L 164.226562 144.113281 C 165.929688 145.246094 167.347656 145.667969 168.484375 145.796875 C 170.550781 146.027344 170.550781 146.027344 170.773438 144.066406 C 170.890625 143.03125 171.871094 137.550781 172.929688 131.917969 C 173.976562 126.285156 175.898438 113.902344 177.121094 104.421875 C 178.550781 93.601562 179.511719 84.144531 179.714844 79.09375 C 179.894531 74.671875 179.886719 69.652344 179.714844 67.957031 C 179.464844 65.054688 179.371094 64.941406 177.871094 64.824219 C 176.984375 64.769531 175.886719 64.757812 175.40625 64.859375 C 174.929688 64.910156 174.320312 65.679688 174.058594 66.589844 Z M 118.140625 92.664062 C 116.554688 108.113281 115.234375 123.074219 115.226562 125.949219 C 115.222656 128.824219 115.164062 133.523438 115.148438 136.398438 C 115.085938 139.265625 115.132812 141.675781 115.230469 141.738281 C 115.304688 141.792969 116.796875 142.226562 118.582031 142.636719 L 121.839844 143.425781 C 122.847656 129.371094 123.675781 119.6875 124.339844 112.859375 C 125.003906 106.035156 126.121094 93.820312 126.878906 85.699219 C 127.640625 77.578125 128.257812 69.699219 128.332031 68.191406 L 128.375 65.480469 L 120.988281 64.648438 Z M 228.457031 116.363281 C 228.347656 116.398438 227.804688 119.84375 227.183594 124.011719 C 226.558594 128.175781 224.996094 137.355469 223.738281 144.378906 C 221.550781 156.363281 221.292969 157.277344 220.085938 158.238281 C 218.929688 159.207031 218.40625 159.199219 212.105469 158.492188 C 205.597656 157.757812 205.285156 157.722656 204.191406 156.292969 C 203.085938 154.96875 203.074219 154.601562 203.699219 149.078125 C 204.058594 145.875 205.105469 138.882812 205.972656 133.492188 C 206.835938 128.152344 207.914062 121.789062 208.398438 119.386719 L 209.207031 115.035156 C 202.058594 114.859375 195.847656 114.734375 190.835938 114.640625 L 181.703125 114.449219 C 179.90625 125.28125 178.640625 132.351562 177.792969 137.117188 C 176.933594 141.933594 175.886719 147.046875 175.460938 148.515625 C 174.933594 150.390625 174.351562 151.371094 173.472656 151.792969 C 172.417969 152.300781 171.386719 152.1875 166.746094 151.144531 C 162.203125 150.109375 161.097656 149.722656 160.234375 148.582031 C 159.585938 147.828125 159.128906 146.3125 159.089844 144.792969 C 159.027344 143.480469 159.703125 136.132812 160.554688 128.542969 L 162.035156 114.699219 C 158.207031 114.789062 152.691406 115.007812 147.335938 115.1875 C 141.972656 115.421875 135.980469 115.6875 133.925781 115.824219 C 131.925781 115.910156 130.070312 116.121094 129.847656 116.253906 C 129.617188 116.4375 129.003906 122.378906 128.464844 129.480469 C 127.976562 136.640625 127.523438 143.386719 127.605469 144.546875 C 127.636719 146.117188 127.417969 146.929688 126.558594 147.773438 C 125.734375 148.621094 124.820312 148.832031 122.367188 148.765625 C 120.644531 148.730469 117.511719 148.21875 115.433594 147.617188 C 113.054688 146.929688 111.269531 146.050781 110.570312 145.292969 C 109.875 144.480469 109.503906 143.132812 109.386719 140.925781 C 109.316406 139.246094 109.363281 134.648438 109.539062 130.75 C 109.65625 126.894531 109.902344 122.425781 110.085938 120.773438 C 110.378906 118.191406 110.3125 117.816406 109.519531 117.9375 C 108.992188 117.980469 104.050781 118.628906 98.476562 119.359375 C 92.960938 120.046875 84.546875 121.347656 79.851562 122.179688 C 75.148438 123.0625 67.914062 124.601562 63.769531 125.652344 C 59.628906 126.648438 53.082031 128.578125 49.164062 129.917969 C 45.292969 131.308594 40.203125 133.300781 37.929688 134.457031 C 35.65625 135.609375 32.644531 137.257812 31.292969 138.101562 C 29.9375 138.992188 27.914062 140.699219 26.792969 141.828125 C 25.667969 143.007812 24.464844 144.859375 24.027344 145.960938 C 23.429688 147.515625 23.378906 148.503906 23.820312 150.121094 C 24.105469 151.355469 25.375 153.484375 26.632812 154.878906 C 27.828125 156.320312 30.597656 158.671875 32.738281 160.117188 C 34.824219 161.554688 38.609375 163.703125 41.042969 164.867188 C 43.519531 166.085938 48.570312 168.171875 52.289062 169.53125 C 56.003906 170.890625 62.71875 173.054688 67.183594 174.289062 C 71.648438 175.523438 78.414062 177.226562 82.183594 178.121094 C 85.957031 178.964844 92.292969 180.304688 96.242188 181.007812 C 100.183594 181.765625 110.152344 183.359375 118.335938 184.539062 C 127.601562 185.894531 140.050781 187.292969 151.136719 188.230469 C 160.980469 189.074219 172.65625 189.917969 177.082031 190.101562 C 181.507812 190.289062 189.472656 190.605469 194.789062 190.789062 C 200.105469 190.964844 209.617188 191.042969 215.941406 191.074219 C 222.273438 191.054688 231.5 190.890625 236.378906 190.761719 C 241.316406 190.582031 248.148438 190.308594 251.621094 190.121094 C 255.09375 189.9375 261.15625 189.523438 265.058594 189.230469 C 268.964844 188.9375 276.945312 188.214844 282.769531 187.5625 C 288.59375 186.960938 297.671875 185.789062 302.941406 184.96875 C 308.210938 184.148438 316.871094 182.511719 322.183594 181.328125 C 327.492188 180.148438 334.65625 178.34375 338.066406 177.3125 C 341.476562 176.285156 346.15625 174.667969 348.402344 173.769531 C 350.65625 172.824219 354.296875 171.140625 356.410156 170.019531 C 358.578125 168.902344 361.691406 166.796875 363.367188 165.363281 C 365.039062 163.984375 366.828125 162.042969 367.359375 161.054688 C 367.886719 160.121094 368.421875 158.613281 368.527344 157.683594 C 368.628906 156.753906 368.210938 154.929688 367.53125 153.496094 C 366.773438 151.894531 365.105469 149.980469 362.816406 148 C 360.863281 146.3125 356.917969 143.726562 354.054688 142.203125 C 351.191406 140.679688 345.714844 138.234375 341.851562 136.753906 C 337.984375 135.324219 331.632812 133.199219 327.738281 132.027344 C 323.835938 130.910156 317.894531 129.300781 314.535156 128.503906 C 311.175781 127.65625 304.382812 126.210938 299.46875 125.242188 C 294.558594 124.269531 286.453125 122.835938 281.519531 122.070312 C 274.011719 120.914062 272.457031 120.792969 272.128906 121.382812 C 271.875 121.773438 270.523438 129.566406 269.125 138.769531 C 266.90625 152.894531 266.390625 155.609375 265.476562 156.761719 C 264.382812 158.101562 264.382812 158.101562 259.378906 157.484375 C 256.589844 157.171875 253.667969 156.632812 252.859375 156.382812 C 252.058594 156.085938 251.007812 155.183594 250.480469 154.289062 C 249.558594 152.71875 249.558594 152.71875 252.066406 136.429688 C 253.5 127.492188 254.730469 119.789062 254.9375 119.292969 C 255.238281 118.488281 254.832031 118.390625 250.996094 118.0625 C 248.617188 117.84375 242.605469 117.328125 237.625 116.976562 C 232.648438 116.578125 228.492188 116.320312 228.433594 116.363281 Z M 359.484375 174.964844 C 357.699219 175.964844 352.863281 178.035156 348.8125 179.621094 C 344.769531 181.152344 338.039062 183.320312 333.886719 184.421875 C 329.734375 185.523438 322.863281 187.105469 318.578125 187.980469 C 314.300781 188.808594 307.359375 190.066406 303.097656 190.738281 C 298.84375 191.355469 292.148438 192.277344 288.226562 192.722656 C 284.304688 193.171875 277.746094 193.84375 273.675781 194.222656 C 269.605469 194.601562 262.273438 195.136719 257.316406 195.46875 C 252.421875 195.753906 243.535156 196.164062 237.597656 196.386719 C 231.667969 196.554688 221.554688 196.726562 215.066406 196.726562 C 208.585938 196.675781 198.867188 196.578125 193.398438 196.378906 C 187.972656 196.242188 180.109375 195.929688 175.941406 195.777344 C 171.773438 195.621094 156.753906 194.296875 142.53125 192.855469 C 125.460938 191.144531 112.921875 189.632812 105.632812 188.390625 C 99.574219 187.398438 91.171875 185.824219 86.929688 184.929688 C 82.742188 184.039062 75.859375 182.429688 71.636719 181.378906 C 67.472656 180.28125 61.285156 178.542969 57.953125 177.488281 C 54.625 176.378906 49.292969 174.472656 46.140625 173.230469 C 42.976562 172.039062 38.152344 169.824219 35.441406 168.367188 C 32.726562 166.910156 29.054688 164.667969 27.273438 163.316406 C 25.488281 161.96875 22.839844 159.472656 21.472656 157.699219 C 20.097656 155.976562 18.835938 154.632812 18.726562 154.671875 C 18.613281 154.703125 17.738281 156.441406 16.78125 158.476562 C 15.863281 160.570312 14.183594 164.824219 13.09375 167.996094 C 12 171.21875 10.542969 176.230469 9.851562 179.132812 C 9.097656 182.605469 8.308594 188.632812 7.648438 195.875 C 6.835938 205.40625 6.761719 208.375 7.273438 213.609375 C 7.609375 217.097656 8.300781 221.671875 8.855469 223.71875 C 9.347656 225.816406 10.429688 229.230469 11.292969 231.3125 C 12.105469 233.390625 13.566406 236.222656 14.558594 237.640625 C 15.554688 239.007812 17.195312 240.707031 18.21875 241.347656 C 19.34375 242.046875 21.164062 242.621094 22.867188 242.8125 C 24.523438 242.996094 27 242.800781 28.828125 242.382812 C 30.496094 241.945312 35.898438 239.519531 40.792969 236.933594 C 46.621094 233.929688 50.855469 232.105469 53.164062 231.582031 C 55.683594 231.027344 57.464844 231.019531 59.460938 231.398438 C 61.253906 231.761719 63.25 232.609375 64.902344 233.738281 C 66.355469 234.738281 68.648438 237.136719 70.011719 238.964844 C 71.632812 241.289062 73.167969 244.390625 74.550781 248.363281 C 75.746094 251.6875 77.453125 257.890625 78.390625 262.125 C 79.371094 266.417969 80.550781 271.257812 81.050781 272.882812 C 81.589844 274.5625 82.90625 277.742188 84.066406 280.015625 C 85.164062 282.335938 86.839844 285.085938 87.769531 286.132812 C 88.699219 287.175781 90.511719 288.742188 91.777344 289.5625 C 93.039062 290.4375 94.574219 291.183594 95.25 291.261719 C 95.867188 291.328125 97.269531 290.964844 98.324219 290.402344 C 99.492188 289.800781 101.089844 288.152344 102.585938 286.019531 C 104.152344 283.738281 106.472656 278.929688 109.648438 271.132812 C 112.242188 264.835938 115.019531 258.300781 115.832031 256.664062 C 116.632812 255.082031 118.269531 252.183594 119.523438 250.335938 C 120.785156 248.441406 123.234375 245.734375 124.964844 244.308594 C 126.808594 242.792969 129.386719 241.253906 131.128906 240.664062 C 132.761719 240.113281 135.648438 239.550781 137.542969 239.449219 C 140.441406 239.253906 141.519531 239.425781 144.488281 240.492188 C 146.449219 241.183594 149.207031 242.695312 150.605469 243.742188 C 152.050781 244.847656 154.585938 247.433594 156.230469 249.550781 C 157.933594 251.625 159.890625 254.667969 160.644531 256.320312 C 161.355469 257.917969 162.4375 260.863281 163.007812 262.757812 C 163.519531 264.695312 164.507812 270.347656 165.207031 275.289062 C 165.847656 280.277344 166.742188 285.8125 167.125 287.53125 C 167.546875 289.300781 168.40625 291.910156 168.992188 293.230469 C 169.625 294.605469 171 296.75 172.011719 298.011719 C 173.0625 299.332031 174.765625 300.9375 175.84375 301.578125 C 177.257812 302.523438 178.777344 302.957031 181.617188 303.273438 C 184.921875 303.648438 186.039062 303.511719 189.191406 302.453125 C 191.265625 301.695312 194.160156 300.136719 195.933594 298.769531 C 197.824219 297.308594 199.792969 295.175781 201.011719 293.171875 C 202.09375 291.464844 203.53125 288.4375 204.171875 286.46875 C 204.804688 284.554688 206.054688 279.046875 206.859375 274.222656 C 207.714844 269.457031 208.863281 264.308594 209.457031 262.753906 C 210.097656 261.257812 211.21875 259.1875 212.027344 258.074219 C 212.828125 257.015625 214.808594 255.199219 216.40625 254.019531 C 218.003906 252.839844 220.839844 251.332031 222.746094 250.65625 C 224.597656 250.027344 227.910156 249.40625 230.066406 249.285156 C 233.117188 249.15625 234.820312 249.347656 237.554688 250.171875 C 239.53125 250.707031 242.515625 252.089844 244.269531 253.226562 C 246.03125 254.316406 248.785156 256.820312 250.398438 258.726562 C 252.015625 260.632812 254.175781 263.753906 255.175781 265.539062 C 256.226562 267.382812 258.617188 272.617188 260.515625 277.117188 C 262.410156 281.667969 264.585938 286.515625 265.324219 287.851562 C 266.054688 289.242188 267.621094 291.613281 268.855469 293.164062 C 270.09375 294.714844 271.929688 296.542969 272.957031 297.179688 C 273.929688 297.8125 275.691406 298.429688 276.828125 298.558594 C 278.273438 298.71875 279.402344 298.476562 280.476562 297.765625 C 281.328125 297.179688 282.84375 295.3125 283.875 293.597656 C 285.292969 291.195312 285.917969 289.386719 286.449219 286.046875 C 287.007812 282.972656 287.074219 279.792969 286.84375 275.113281 C 286.621094 271.53125 286.316406 266.792969 286.148438 264.578125 C 286.027344 262.421875 286.125 258.300781 286.441406 255.460938 C 286.714844 252.355469 287.417969 249.140625 288.152344 247.289062 C 288.753906 245.632812 290.023438 243.214844 290.960938 241.855469 C 291.894531 240.550781 294.714844 237.78125 297.242188 235.765625 C 300.117188 233.472656 302.988281 231.65625 304.839844 231.027344 C 306.476562 230.425781 309.054688 229.828125 310.476562 229.726562 C 312.21875 229.609375 314.230469 229.835938 316.414062 230.441406 C 318.246094 230.90625 321.472656 232.421875 323.625 233.761719 C 325.78125 235.050781 330.242188 238.164062 333.578125 240.578125 C 336.910156 243.046875 341.0625 245.65625 342.859375 246.433594 C 344.65625 247.210938 347.03125 247.949219 348.167969 248.074219 C 349.40625 248.214844 351.433594 247.867188 353.238281 247.183594 C 354.820312 246.574219 357.066406 245.207031 358.179688 244.183594 C 359.285156 243.15625 361.058594 240.898438 362.144531 239.140625 C 364 236.160156 364.164062 235.601562 365.234375 227.984375 C 365.878906 223.613281 366.523438 216.523438 366.648438 212.199219 C 366.8125 207.929688 366.972656 198.644531 367.082031 191.597656 C 367.140625 184.597656 367.167969 176.917969 367.164062 174.617188 C 367.109375 172.308594 367.011719 170.417969 366.960938 170.359375 C 366.863281 170.300781 365.910156 170.867188 364.773438 171.679688 C 363.691406 172.449219 361.273438 173.953125 359.488281 174.957031 Z M 306.191406 236.671875 C 304.761719 237.296875 302.109375 238.984375 300.273438 240.449219 C 298.375 241.960938 296.277344 244.339844 295.199219 245.996094 C 294.230469 247.613281 293.019531 250.507812 292.492188 252.382812 C 291.917969 254.671875 291.640625 257.148438 291.652344 259.871094 C 291.714844 262.125 292.003906 266.96875 292.265625 270.65625 C 292.582031 274.351562 292.800781 277.511719 292.789062 277.617188 C 292.773438 277.773438 297.859375 277.191406 304.082031 276.273438 C 310.300781 275.402344 318.984375 274.027344 323.363281 273.214844 C 327.792969 272.457031 336.082031 270.828125 341.8125 269.640625 C 347.550781 268.40625 353.84375 266.867188 355.800781 266.195312 C 357.761719 265.527344 359.695312 265.066406 360.109375 265.113281 C 360.78125 265.1875 360.929688 264.316406 361.242188 258.808594 C 361.425781 255.328125 361.636719 251.535156 361.769531 250.347656 L 362.082031 248.292969 C 358.695312 250.941406 356.363281 252.144531 354.726562 252.746094 C 352.875 253.425781 350.582031 253.792969 348.601562 253.726562 C 346.621094 253.664062 344.328125 253.140625 342.214844 252.382812 C 340.414062 251.65625 337.304688 250 335.308594 248.679688 C 333.308594 247.40625 329.136719 244.480469 326.097656 242.207031 C 323.054688 239.980469 319.542969 237.703125 318.300781 237.144531 C 317.054688 236.585938 315.144531 235.902344 314.023438 235.617188 C 312.898438 235.386719 311.292969 235.265625 310.390625 235.367188 C 309.542969 235.484375 307.640625 236.105469 306.214844 236.675781 Z M 221.75 257.234375 C 220.300781 258.011719 218.285156 259.667969 217.253906 260.910156 C 216.226562 262.15625 215.078125 263.960938 214.660156 264.90625 C 214.285156 265.910156 213.339844 270.140625 212.601562 274.347656 C 211.914062 278.609375 211.316406 282.097656 211.359375 282.152344 C 211.433594 282.207031 216.742188 282.1875 223.242188 282.078125 C 229.734375 282.023438 239.652344 281.726562 245.28125 281.472656 C 250.90625 281.214844 255.589844 280.960938 255.699219 280.917969 C 255.789062 280.824219 255.082031 278.96875 254.136719 276.664062 C 253.1875 274.414062 251.632812 271.050781 250.6875 269.21875 C 249.6875 267.433594 247.8125 264.558594 246.484375 262.890625 C 245.0625 261.113281 242.730469 259.070312 240.773438 257.859375 C 238.234375 256.265625 236.625 255.667969 233.847656 255.25 C 231.386719 254.8125 229.34375 254.851562 227.308594 255.246094 C 225.703125 255.589844 223.191406 256.507812 221.75 257.234375 Z M 132.863281 246.191406 C 131.664062 246.628906 129.632812 247.917969 128.308594 249.023438 C 127.03125 250.136719 125.382812 251.777344 124.652344 252.691406 C 123.964844 253.660156 122.609375 255.964844 121.613281 257.835938 C 120.609375 259.765625 118.566406 264.449219 116.984375 268.296875 C 115.394531 272.195312 114.003906 275.699219 113.792969 276.195312 C 113.492188 277 114.097656 277.171875 121.847656 278.042969 C 126.445312 278.5625 136.855469 279.472656 145.007812 280.023438 C 153.152344 280.625 159.898438 281.121094 159.953125 281.074219 C 160.066406 281.042969 159.746094 277.8125 159.253906 273.835938 C 158.621094 268.746094 157.859375 265.3125 156.585938 261.769531 C 155.25 258.277344 153.90625 255.824219 151.757812 253.074219 C 150.054688 251 147.5625 248.523438 146.046875 247.566406 C 144.539062 246.5625 142.289062 245.628906 140.804688 245.359375 C 139.421875 245.09375 137.550781 244.992188 136.648438 245.101562 C 135.792969 245.265625 134.0625 245.75 132.863281 246.191406 Z M 49.753906 238.671875 C 48.703125 239.179688 45.421875 240.902344 42.519531 242.511719 C 39.625 244.066406 35.535156 246.011719 33.40625 246.816406 C 31.332031 247.578125 28.421875 248.347656 26.933594 248.546875 C 25.445312 248.746094 22.742188 248.597656 20.6875 248.265625 C 18.484375 247.855469 16.320312 247.09375 15.058594 246.21875 L 12.96875 244.832031 C 13.003906 248.707031 13.023438 250.382812 13.105469 251.019531 C 13.15625 251.964844 14.023438 252.636719 17.039062 254.179688 C 19.117188 255.25 22.898438 256.980469 25.347656 257.988281 C 27.847656 259.003906 32.828125 260.765625 36.421875 261.847656 C 40.058594 262.992188 46.449219 264.753906 50.621094 265.800781 C 54.84375 266.847656 61.828125 268.472656 66.171875 269.378906 C 70.515625 270.285156 74.15625 270.957031 74.265625 270.914062 C 74.375 270.882812 73.632812 267.238281 72.667969 262.789062 C 71.699219 258.394531 70.179688 252.839844 69.355469 250.394531 C 68.527344 248 67.007812 244.796875 65.980469 243.214844 C 64.949219 241.6875 63.4375 239.792969 62.632812 239.023438 C 61.683594 238.183594 60.191406 237.492188 58.554688 237.152344 C 57.023438 236.824219 55.1875 236.882812 53.84375 237.199219 C 52.652344 237.535156 50.804688 238.164062 49.753906 238.671875 Z M 342.488281 275.261719 C 336.597656 276.480469 328.519531 278.078125 324.5625 278.835938 C 320.613281 279.542969 311.878906 280.914062 305.132812 281.828125 L 292.914062 283.484375 C 291.675781 289.359375 290.773438 292.289062 290.132812 293.785156 C 289.535156 295.339844 288.367188 297.402344 287.566406 298.460938 C 286.816406 299.582031 285.398438 300.988281 284.53125 301.730469 C 283.609375 302.460938 281.882812 303.417969 280.683594 303.855469 C 278.992188 304.453125 277.78125 304.523438 275.421875 304.101562 C 273.632812 303.742188 271.371094 302.914062 269.902344 302.015625 C 268.585938 301.191406 266.136719 298.769531 264.433594 296.695312 C 262.785156 294.628906 260.683594 291.464844 259.730469 289.683594 C 258.449219 287.136719 257.84375 286.492188 256.992188 286.605469 C 256.40625 286.699219 250.363281 286.957031 243.582031 287.242188 C 236.808594 287.472656 226.425781 287.714844 220.5 287.835938 C 214.582031 287.902344 209.757812 287.984375 209.703125 288.03125 C 209.691406 288.136719 209.242188 289.285156 208.726562 290.640625 C 208.203125 292.042969 206.917969 294.617188 205.835938 296.328125 C 204.488281 298.527344 202.535156 300.554688 199.769531 302.808594 C 197.242188 304.824219 194.433594 306.546875 192.308594 307.300781 C 190.402344 307.972656 187.378906 308.785156 185.570312 309.050781 C 183.5 309.339844 181.097656 309.28125 179.152344 308.902344 C 177.359375 308.59375 174.953125 307.648438 173.289062 306.625 C 171.722656 305.664062 169.386719 303.675781 168.089844 302.171875 C 166.742188 300.660156 165.089844 298.171875 164.320312 296.625 C 163.601562 295.128906 162.558594 292.292969 161.992188 290.347656 L 161.027344 286.84375 C 155.988281 286.535156 148.675781 285.976562 141.511719 285.484375 C 134.40625 284.945312 124.671875 284.058594 119.921875 283.527344 C 112.121094 282.648438 111.230469 282.65625 110.828125 283.445312 C 110.617188 283.941406 109.332031 286.046875 107.992188 288.195312 C 106.644531 290.398438 104.582031 292.933594 103.375 293.898438 C 102.113281 294.855469 100.421875 295.96875 99.488281 296.335938 C 98.507812 296.695312 96.609375 296.847656 94.746094 296.640625 C 92.421875 296.378906 90.914062 295.839844 88.710938 294.496094 C 86.753906 293.300781 84.785156 291.421875 82.808594 288.867188 C 81.164062 286.746094 79.128906 283.433594 78.304688 281.457031 C 77.425781 279.527344 76.679688 277.773438 76.652344 277.558594 C 76.566406 277.390625 72.183594 276.378906 66.816406 275.25 C 61.496094 274.183594 52.320312 272.054688 46.421875 270.550781 C 40.582031 269.007812 33.132812 266.863281 29.960938 265.773438 C 26.789062 264.683594 21.679688 262.644531 18.59375 261.253906 C 15.507812 259.859375 13.007812 258.847656 12.945312 258.945312 C 12.925781 259.101562 12.800781 265.359375 12.695312 272.769531 C 12.585938 280.234375 12.417969 286.855469 12.359375 287.371094 C 12.257812 288.25 13.1875 288.824219 18.632812 291.109375 C 22.132812 292.546875 29.046875 295.261719 34.015625 297.125 C 38.988281 298.941406 47.042969 301.730469 51.886719 303.320312 C 56.734375 304.859375 64.738281 307.171875 69.617188 308.449219 C 74.5 309.679688 82 311.359375 86.199219 312.144531 C 90.460938 312.886719 98.988281 314.261719 105.21875 315.121094 C 111.449219 316.03125 124.113281 317.355469 133.402344 318.03125 C 142.683594 318.761719 155.046875 319.523438 160.929688 319.769531 C 166.8125 320.011719 175.824219 320.347656 180.992188 320.457031 C 186.152344 320.617188 195.089844 320.683594 200.851562 320.597656 C 206.617188 320.515625 214.066406 320.308594 217.386719 320.105469 C 220.699219 319.957031 230 319.121094 237.984375 318.347656 C 245.976562 317.519531 255.511719 316.449219 259.175781 315.972656 C 262.84375 315.445312 270.980469 314.269531 277.261719 313.300781 C 283.550781 312.285156 292.085938 310.785156 296.214844 309.890625 C 300.34375 308.996094 312.71875 305.945312 323.65625 303.097656 C 334.648438 300.257812 347.300781 297.078125 351.761719 296.011719 C 359.554688 294.171875 359.9375 294.003906 359.871094 292.742188 C 359.84375 292.058594 359.984375 287.578125 360.199219 282.847656 C 360.410156 278.164062 360.621094 273.535156 360.671875 272.601562 C 360.667969 271.660156 360.4375 270.902344 360.183594 270.871094 C 359.917969 270.886719 358.246094 271.332031 356.449219 271.96875 C 354.65625 272.550781 348.371094 274.039062 342.476562 275.257812 Z M 348.242188 302.675781 C 342.378906 304.105469 329.671875 307.328125 320.023438 309.851562 C 310.375 312.375 299.132812 315.132812 295.007812 315.976562 C 290.886719 316.820312 282.617188 318.242188 276.609375 319.136719 C 270.589844 320.078125 261.289062 321.386719 255.875 322.082031 C 250.464844 322.730469 239.714844 323.925781 231.945312 324.621094 C 224.070312 325.355469 211.699219 326.054688 204.042969 326.1875 C 196.445312 326.324219 182.753906 326.195312 173.582031 325.894531 C 164.410156 325.597656 151.761719 325.011719 145.472656 324.667969 C 139.1875 324.273438 125.316406 322.976562 114.675781 321.777344 C 104.027344 320.628906 91.40625 318.902344 86.585938 318.042969 C 81.824219 317.140625 73.863281 315.359375 68.980469 314.128906 C 64.101562 312.847656 56.546875 310.746094 52.246094 309.425781 C 47.957031 308.054688 39.34375 305.097656 33.121094 302.777344 C 26.886719 300.507812 19.820312 297.777344 17.3125 296.816406 C 14.863281 295.808594 12.75 295.046875 12.636719 295.140625 C 12.554688 295.183594 12.527344 298.421875 12.515625 302.289062 C 12.542969 306.214844 12.59375 310.871094 12.707031 312.660156 C 12.769531 314.917969 13.105469 316.105469 13.6875 316.484375 C 14.125 316.792969 18.890625 319.054688 24.207031 321.535156 C 29.527344 324.015625 37.617188 327.4375 42.183594 329.152344 C 46.75 330.867188 54.207031 333.378906 58.816406 334.734375 C 63.417969 336.140625 71.542969 338.308594 76.839844 339.585938 C 82.1875 340.867188 90.449219 342.738281 95.203125 343.742188 C 100.011719 344.703125 107.226562 346.140625 111.328125 346.863281 C 115.433594 347.585938 123.5 348.859375 129.320312 349.671875 C 135.140625 350.484375 143.117188 351.644531 147.082031 352.191406 C 151.042969 352.796875 161.851562 353.898438 171.125 354.6875 C 180.40625 355.417969 191.359375 356.179688 195.519531 356.386719 C 199.6875 356.542969 207.671875 356.707031 213.261719 356.761719 C 218.855469 356.816406 227.5 356.6875 232.386719 356.507812 C 237.316406 356.382812 244.527344 355.992188 248.425781 355.75 C 252.328125 355.457031 260.796875 354.578125 267.222656 353.734375 C 273.644531 352.886719 282.535156 351.535156 286.921875 350.667969 C 291.351562 349.859375 299.78125 347.933594 305.710938 346.40625 C 311.628906 344.925781 323.175781 341.78125 331.34375 339.40625 C 339.511719 337.03125 348.292969 334.308594 350.851562 333.394531 C 355.480469 331.773438 355.488281 331.71875 356.109375 329.4375 C 356.457031 328.222656 357.339844 321.734375 358.050781 315.019531 C 358.800781 308.359375 359.328125 302.300781 359.210938 301.503906 L 358.941406 300.113281 Z M 348.242188 302.675781 " fill-opacity="1" fill-rule="evenodd"/></g></svg>