<svg xmlns="http://www.w3.org/2000/svg" xmlns:xlink="http://www.w3.org/1999/xlink" width="500" zoomAndPan="magnify" viewBox="0 0 375 374.999991" height="500" preserveAspectRatio="xMidYMid meet" version="1.0"><path fill="#ffffff" d="M 187.5 0 C 83.953125 0 0 83.953125 0 187.5 C 0 291.046875 83.953125 375 187.5 375 C 291.046875 375 375 291.046875 375 187.5 C 375 83.953125 291.046875 0 187.5 0 Z M 187.5 353.3125 C 95.847656 353.3125 21.6875 279.152344 21.6875 187.5 C 21.6875 95.847656 95.847656 21.6875 187.5 21.6875 C 279.152344 21.6875 353.3125 95.847656 353.3125 187.5 C 353.3125 279.152344 279.152344 353.3125 187.5 353.3125 Z M 187.5 353.3125 " fill-opacity="1" fill-rule="nonzero"/><path fill="#ffffff" d="M 304.472656 119.597656 L 228.988281 185.082031 L 232.96875 189.171875 L 235.925781 192.199219 L 235.921875 192.207031 L 301.648438 259.824219 C 301.957031 260.136719 302.183594 260.503906 302.335938 260.890625 C 303.882812 258.640625 304.800781 255.898438 304.800781 252.933594 L 304.800781 119.269531 C 304.683594 119.378906 304.59375 119.496094 304.472656 119.597656 Z M 304.472656 119.597656 " fill-opacity="1" fill-rule="nonzero"/><path fill="#ffffff" d="M 301.402344 110.199219 C 301.195312 109.605469 300.554688 108.234375 299.152344 108.234375 C 299.15625 108.234375 75.84375 108.234375 75.84375 108.234375 C 74.441406 108.234375 73.804688 109.605469 73.589844 110.199219 C 73.085938 111.605469 73.183594 113.550781 74.535156 114.722656 L 177.066406 203.667969 C 183.199219 208.992188 191.777344 208.992188 197.917969 203.667969 L 300.457031 114.722656 C 301.8125 113.546875 301.902344 111.605469 301.402344 110.199219 Z M 301.402344 110.199219 " fill-opacity="1" fill-rule="nonzero"/><path fill="#ffffff" d="M 70.523438 119.597656 C 70.40625 119.496094 70.3125 119.378906 70.203125 119.269531 L 70.203125 252.933594 C 70.203125 255.070312 70.691406 257.085938 71.53125 258.890625 L 148.496094 187.234375 Z M 70.523438 119.597656 " fill-opacity="1" fill-rule="nonzero"/><path fill="#ffffff" d="M 228.542969 193.664062 L 224.203125 189.230469 L 201.941406 208.542969 C 197.699219 212.230469 192.597656 214.078125 187.5 214.078125 C 182.402344 214.078125 177.308594 212.238281 173.058594 208.542969 L 153.289062 191.390625 L 75.449219 263.867188 C 77.726562 265.675781 80.578125 266.765625 83.679688 266.765625 L 291.324219 266.765625 C 293.78125 266.765625 296.085938 266.078125 298.070312 264.894531 C 297.777344 264.746094 297.488281 264.585938 297.246094 264.335938 Z M 228.542969 193.664062 " fill-opacity="1" fill-rule="nonzero"/></svg>