<svg xmlns="http://www.w3.org/2000/svg" xmlns:xlink="http://www.w3.org/1999/xlink" width="500" zoomAndPan="magnify" viewBox="0 0 375 374.999991" height="500" preserveAspectRatio="xMidYMid meet" version="1.0"><defs><clipPath id="14d1de083a"><path d="M 20.089844 0.136719 L 354.589844 0.136719 L 354.589844 374.855469 L 20.089844 374.855469 Z M 20.089844 0.136719 " clip-rule="nonzero"/></clipPath></defs><g clip-path="url(#14d1de083a)"><path fill="#fad362" d="M 331.542969 114.921875 C 320.140625 138.125 300.480469 158.523438 275.046875 168.839844 L 276.875 147.84375 C 276.8125 132.242188 264.089844 119.378906 247.953125 119.183594 L 217.855469 121.492188 C 218.445312 72.785156 235.4375 34.589844 264.003906 18.988281 C 281.777344 9.289062 301.429688 9.921875 317.96875 20.757812 C 349.070312 41.140625 346.804688 83.859375 331.542969 114.921875 Z M 214.902344 198.945312 C 210.101562 203.886719 201.515625 203.746094 196.667969 198.875 C 191.691406 193.816406 191.738281 185.644531 196.777344 180.640625 C 197.039062 180.652344 197.15625 180.789062 197.332031 180.847656 C 204.394531 183.308594 211.296875 185.089844 218.039062 186.289062 C 219.03125 189.160156 218.269531 195.488281 214.902344 198.945312 Z M 262.589844 172.96875 C 251.269531 175.851562 238.988281 176.730469 225.941406 175.144531 C 225.214844 174.148438 224.480469 173.152344 223.597656 172.257812 C 214.246094 162.738281 197.765625 162.644531 188.28125 172.050781 C 178.515625 181.734375 178.421875 197.578125 188.097656 207.375 C 192.8125 212.144531 199.113281 214.773438 205.820312 214.773438 C 212.4375 214.773438 218.679688 212.210938 223.394531 207.546875 C 228.136719 202.84375 230.457031 193.65625 230.617188 187.835938 C 233.386719 188.039062 236.160156 188.195312 238.875 188.195312 C 246.726562 188.195312 254.253906 187.300781 261.484375 185.765625 C 261.484375 185.765625 259.605469 202.808594 259.003906 214.285156 C 258.410156 225.757812 257.742188 235.410156 251.015625 242.082031 L 133.90625 358.070312 C 127.75 364.160156 116.933594 364.09375 110.871094 357.980469 L 36.847656 283.050781 C 33.804688 279.984375 32.140625 275.882812 32.167969 271.503906 C 32.1875 267.140625 33.886719 263.066406 36.96875 260.023438 L 154.066406 144.046875 C 160.5625 137.613281 171.960938 136.574219 179.511719 136.296875 C 189.171875 135.945312 248.332031 131.257812 248.332031 131.257812 C 257.375 131.382812 264.761719 138.84375 264.816406 147.339844 Z M 324.574219 10.644531 C 304.511719 -2.511719 279.714844 -3.355469 258.214844 8.375 C 225.554688 26.234375 206.140625 68.761719 205.75 122.421875 C 205.75 122.421875 187.644531 124.066406 179.511719 124.210938 C 171.375 124.355469 155.585938 125.542969 145.570312 135.445312 L 28.472656 251.429688 C 23.109375 256.738281 20.136719 263.847656 20.089844 271.441406 C 20.050781 279.050781 22.953125 286.191406 28.261719 291.558594 L 102.289062 366.484375 C 107.640625 371.882812 114.792969 374.855469 122.433594 374.855469 C 129.96875 374.855469 137.058594 371.945312 142.402344 366.667969 L 259.511719 250.671875 C 270.304688 239.976562 270.152344 226.675781 271.0625 214.78125 C 271.96875 202.882812 273.878906 182.386719 273.878906 182.386719 C 304.921875 171.78125 328.867188 147.761719 342.382812 120.261719 C 363.8125 76.640625 356.503906 31.5625 324.574219 10.644531 " fill-opacity="1" fill-rule="nonzero"/></g></svg>